<?xml version="1.0" standalone="no"?>
<!DOCTYPE svg PUBLIC "-//W3C//DTD SVG 20010904//EN"
 "http://www.w3.org/TR/2001/REC-SVG-20010904/DTD/svg10.dtd">
<svg version="1.0" xmlns="http://www.w3.org/2000/svg"
 width="700.000000pt" height="700.000000pt" viewBox="0 0 700.000000 700.000000"
 preserveAspectRatio="xMidYMid meet">
<metadata>
Created by potrace 1.14, written by Peter Selinger 2001-2017
</metadata>
<g transform="translate(0.000000,700.000000) scale(0.100000,-0.100000)"
fill="#000000" stroke="none">
<path d="M4437 6994 c-1 -1 -29 -5 -62 -8 -65 -6 -92 -9 -230 -31 -49 -8 -103
-16 -120 -19 -25 -4 -104 -18 -335 -62 -409 -78 -1017 -240 -1193 -318 -18 -7
-52 -21 -77 -31 -25 -9 -58 -22 -75 -29 -16 -8 -104 -44 -195 -81 -151 -62
-335 -142 -515 -225 -210 -96 -619 -310 -770 -403 -108 -67 -292 -192 -305
-207 -3 -3 -16 -13 -29 -22 -52 -36 -174 -153 -217 -209 -25 -33 -58 -87 -74
-122 -23 -51 -109 -335 -124 -412 -47 -229 -66 -334 -71 -380 -2 -16 -6 -47
-9 -67 -3 -21 -8 -53 -11 -70 -27 -195 -27 -731 0 -899 2 -13 6 -46 9 -74 7
-58 11 -82 31 -185 9 -41 17 -86 20 -99 22 -113 110 -401 151 -489 13 -29 24
-57 24 -63 0 -20 134 -287 197 -394 100 -167 239 -365 313 -446 31 -34 135
-92 255 -142 50 -21 99 -42 110 -47 11 -5 83 -32 160 -60 77 -28 163 -60 190
-70 28 -10 113 -41 190 -69 77 -27 178 -64 225 -81 47 -18 114 -42 150 -55
552 -196 1262 -517 1571 -710 9 -5 32 -18 50 -29 63 -35 273 -178 367 -250 52
-39 108 -81 126 -93 39 -28 111 -42 196 -39 59 2 74 7 145 50 77 47 239 163
300 215 17 14 50 41 73 59 143 116 395 358 567 547 50 54 99 108 110 119 48
52 251 299 313 381 294 391 515 762 667 1120 161 379 339 1046 405 1520 17
122 19 136 25 195 29 245 40 700 22 910 -32 377 -130 682 -266 833 -102 113
-371 230 -601 261 -87 12 -126 16 -180 21 -61 5 -339 6 -410 1 -171 -12 -248
-18 -270 -21 -14 -2 -50 -7 -80 -10 -68 -7 -89 -10 -220 -29 -58 -9 -125 -18
-150 -21 -25 -3 -52 -8 -60 -10 -8 -2 -80 -16 -160 -30 -80 -14 -156 -27 -170
-30 -14 -2 -36 -7 -50 -10 -14 -2 -113 -23 -220 -45 -107 -22 -204 -42 -215
-44 -11 -2 -76 -18 -145 -36 -69 -17 -132 -33 -140 -35 -68 -15 -240 -65 -360
-105 -324 -108 -478 -198 -535 -311 -21 -40 -24 -59 -22 -130 5 -155 75 -223
242 -232 79 -5 143 8 430 88 451 124 1072 288 1145 301 14 3 52 12 85 21 33 8
67 16 75 18 8 2 49 11 90 20 72 16 85 19 140 30 65 14 300 55 340 60 25 3 56
8 70 10 14 2 46 7 73 10 73 8 140 17 162 21 10 2 37 6 60 9 22 3 94 15 160 25
414 66 570 71 673 23 41 -20 59 -47 77 -115 31 -115 36 -501 10 -788 -2 -19
-6 -69 -9 -110 -4 -41 -8 -91 -11 -110 -3 -19 -7 -57 -10 -85 -3 -27 -7 -66
-10 -85 -3 -19 -7 -51 -9 -70 -10 -78 -41 -280 -51 -330 -3 -14 -8 -38 -11
-55 -28 -168 -109 -509 -150 -640 -14 -44 -28 -87 -29 -95 -11 -49 -94 -265
-146 -380 -60 -135 -272 -534 -349 -660 -5 -8 -64 -105 -131 -215 -157 -257
-554 -856 -616 -930 -5 -5 -24 -32 -43 -60 -19 -27 -37 -52 -40 -55 -3 -3 -32
-41 -64 -85 -205 -276 -407 -509 -513 -592 -71 -56 -66 -59 -251 125 -178 177
-226 220 -388 349 -498 395 -1101 689 -1759 857 -128 32 -294 69 -370 81 -16
3 -52 10 -80 15 -84 16 -108 20 -150 26 -22 3 -62 9 -90 14 -27 5 -68 12 -90
15 -230 32 -295 54 -312 106 -6 19 -28 81 -48 139 -69 195 -201 668 -229 820
-2 14 -11 59 -20 100 -18 89 -43 229 -51 285 -3 23 -7 50 -9 61 -2 12 -7 45
-11 75 -3 30 -8 65 -10 79 -7 43 -15 102 -21 170 -3 36 -8 90 -10 120 -9 98
-11 533 -3 625 18 207 21 226 40 321 5 28 12 64 15 80 15 91 81 310 110 366
50 96 385 264 926 463 68 25 132 50 143 55 11 5 124 47 250 94 341 126 507
193 740 299 116 52 343 151 505 220 1002 424 1283 558 1388 663 37 38 40 50
13 59 -17 5 -159 4 -164 -1z"/>
<path d="M5927 4410 c-100 -134 -279 -331 -477 -525 -106 -104 -333 -304 -380
-333 -27 -18 -102 -73 -110 -82 -3 -3 -66 -47 -140 -97 -418 -281 -864 -481
-1245 -559 -11 -2 -31 -6 -45 -9 -14 -3 -45 -7 -70 -10 -25 -3 -61 -7 -80 -10
-79 -11 -384 -6 -560 10 -367 34 -582 109 -880 308 -382 255 -597 470 -809
807 l-22 35 5 -135 c9 -259 82 -527 227 -827 101 -211 176 -321 309 -453 128
-129 251 -217 432 -313 200 -105 504 -205 744 -243 20 -3 46 -8 58 -10 11 -2
44 -7 71 -10 28 -3 55 -7 62 -9 27 -9 240 -20 388 -20 146 0 238 6 298 20 12
3 34 7 48 9 15 2 71 16 125 31 521 142 1078 556 1531 1138 322 414 496 815
558 1290 4 26 5 47 3 47 -2 0 -21 -23 -41 -50z"/>
</g>
</svg>
