<?xml version="1.0" encoding="utf-8"?>
<!-- Generator: Adobe Illustrator 24.1.2, SVG Export Plug-In . SVG Version: 6.00 Build 0)  -->
<svg version="1.1" id="Layer_1" xmlns="http://www.w3.org/2000/svg" xmlns:xlink="http://www.w3.org/1999/xlink" x="0px" y="0px"
	 viewBox="0 0 283.44 398.86" style="enable-background:new 0 0 283.44 398.86;" xml:space="preserve">
<style type="text/css">
	.st0{fill:#F77C1B;}
	.st1{fill:#FFFF00;}
</style>
<path class="st0" d="M143.19,0.01C62.41-0.82-1.99,66.8,0.05,147.56c2.45,97.08,65.45,186.68,106.6,235.09
	c18.4,21.65,51.76,21.6,70.16-0.05c41.97-49.39,106.63-141.6,106.63-240.87C283.44,63.95,220.79,0.81,143.19,0.01z M143.48,195.84
	c-31.3,1-56.88-24.58-55.88-55.88c0.91-28.35,23.99-51.43,52.34-52.34c31.3-1,56.88,24.58,55.88,55.88
	C194.91,171.85,171.82,194.94,143.48,195.84z"/>
<path class="st1" d="M-440.24,0.01c-80.79-0.83-145.19,66.8-143.15,147.57c2.59,102.2,72.27,196.1,112.92,242.4
	c15.24,17.36,42.29,17.3,57.53-0.06C-371.51,342.71-300,246.13-300,141.73C-300,63.95-362.65,0.81-440.24,0.01z"/>
<circle class="st1" cx="-441.73" cy="141.73" r="54.14"/>
</svg>
