<?xml version="1.0" encoding="UTF-8" standalone="no"?>
<svg
   xmlns:dc="http://purl.org/dc/elements/1.1/"
   xmlns:cc="http://creativecommons.org/ns#"
   xmlns:rdf="http://www.w3.org/1999/02/22-rdf-syntax-ns#"
   xmlns:svg="http://www.w3.org/2000/svg"
   xmlns="http://www.w3.org/2000/svg"
   viewBox="0 0 398.0372 166.29919"
   height="166.29919"
   width="398.0372"
   xml:space="preserve"
   id="svg2"
   version="1.1"><metadata
     id="metadata8"><rdf:RDF><cc:Work
         rdf:about=""><dc:format>image/svg+xml</dc:format><dc:type
           rdf:resource="http://purl.org/dc/dcmitype/StillImage" /></cc:Work></rdf:RDF></metadata><defs
     id="defs6" /><g
     transform="matrix(1.3333333,0,0,-1.3333333,0,166.2992)"
     id="g10"><path
       id="path12"
       style="fill:#1c4e9d;fill-opacity:1;fill-rule:evenodd;stroke:none"
       d="m 115.1776,50.7172 c 0,-3.1541 -0.8252,-6.8686 -4.8345,-6.8686 -4.009,0 -4.8348,3.7145 -4.8348,6.8686 0,3.3316 0.8258,7.0458 4.8348,7.0458 4.0093,0 4.8345,-3.7142 4.8345,-7.0458 z m -4.8345,-10.9956 c 7.0455,0 11.0257,4.068 11.0257,11.0846 0,7.016 -3.9802,11.084 -11.0257,11.084 -7.0455,0 -11.0256,-4.068 -11.0256,-11.084 0,-7.0166 3.9801,-11.0846 11.0256,-11.0846" /><path
       id="path14"
       style="fill:#1c4e9d;fill-opacity:1;fill-rule:evenodd;stroke:none"
       d="m 130.3362,52.1617 c 2.3873,0 2.6526,-2.7122 2.6526,-4.5394 0,-1.9165 -0.4124,-4.6581 -2.8593,-4.6581 -2.0341,0 -2.535,2.7416 -2.535,4.3925 0,1.9752 0.2061,4.805 2.7417,4.805 z m -8.343,-11.9979 h 5.4536 l 0.1477,2.1816 h 0.1176 c 0.3833,-1.5035 2.4174,-2.6238 4.1273,-2.6238 4.8931,0 6.8981,3.5671 6.8981,8.077 0,4.1865 -2.0342,7.6063 -6.5738,7.6063 -1.6804,0 -3.479,-0.6781 -4.5103,-2.005 h -0.0589 v 8.0484 h -5.6013 z" /><path
       id="path16"
       style="fill:#1c4e9d;fill-opacity:1;fill-rule:evenodd;stroke:none"
       d="M 149.1545,54.9626 145.9706,44.674 h -0.0586 l -2.9189,10.2886 h -5.9839 l 6.1906,-15.241 -2.0931,-5.218 h 5.159 l 8.0479,20.459 z" /><path
       id="path18"
       style="fill:#1c4e9d;fill-opacity:1;fill-rule:evenodd;stroke:none"
       d="m 163.679,40.1638 2.889,10.3181 h 0.059 l 2.6824,-10.3181 h 6.1909 l 4.6579,14.7988 h -4.9527 l -2.5946,-10.436 h -0.0589 l -2.5645,10.436 h -6.1906 l -2.5943,-10.4947 h -0.0589 l -2.388,10.4947 h -5.6602 l 4.5108,-14.7988 z" /><path
       id="path20"
       style="fill:#1c4e9d;fill-opacity:1;fill-rule:evenodd;stroke:none"
       d="m 183.7704,44.9099 c 0,1.0321 0.6485,1.5624 1.474,1.9751 0.7667,0.3833 1.8864,0.3243 3.0659,0.3243 0,-1.9752 -0.2063,-4.2451 -2.6237,-4.2451 -1.0613,0 -1.9162,0.8844 -1.9162,1.9457 z m 10.1114,-4.7461 c -0.2063,1.7688 -0.3243,2.4171 -0.3243,3.0362 v 7.6062 c 0.0593,3.3307 -3.5674,4.5987 -6.5738,4.5987 -1.6509,0 -3.5671,-0.1769 -5.1004,-0.8845 -1.5032,-0.6783 -2.5939,-1.8867 -2.5645,-3.9798 h 5.277 c -0.0292,0.8841 0.4127,2.211 1.7685,2.2703 2.2406,0.0881 1.946,-1.7989 1.946,-3.0958 h -1.7688 c -4.8345,0 -8.1366,-1.4737 -8.1952,-5.0706 -0.059,-3.0362 1.7685,-4.9229 5.2767,-4.9229 2.7711,0 4.0388,1.3856 4.7168,2.4469 h 0.0587 c 0,-1.0613 0,-1.533 0.1182,-2.0047 z" /><path
       id="path22"
       style="fill:#1c4e9d;fill-opacity:1;fill-rule:evenodd;stroke:none"
       d="m 193.7254,54.9626 v -3.5379 h 2.889 v -6.6325 c -0.2948,-4.5399 2.0047,-5.0706 5.8076,-5.0706 0.8252,0 1.7391,0.059 3.0068,0.2948 v 3.3313 c -0.6486,-0.0887 -1.4148,-0.0887 -2.1521,-0.0887 -1.2971,0 -1.0613,1.9162 -1.0613,2.2994 v 5.8663 h 3.2428 v 3.5379 h -3.2428 v 4.3628 l -5.601,-2.1223 v -2.2405 z" /><path
       id="path24"
       style="fill:#1c4e9d;fill-opacity:1;fill-rule:evenodd;stroke:none"
       d="m 221.25,46.4431 c 0,5.5126 -1.9162,8.9618 -7.9302,8.9618 -4.4509,0 -7.9591,-2.6533 -7.9591,-7.3404 0,-5.8079 2.3582,-8.3429 8.284,-8.3429 1.739,0 3.3897,0.324 4.6871,1.1495 1.415,0.8257 2.6237,2.2113 2.8006,4.1272 h -5.1882 c -0.2067,-1.3853 -1.1798,-2.1223 -2.742,-2.1223 -2.0928,0 -2.594,1.6506 -2.5645,3.5671 z m -10.4947,3.0064 c 0.1474,1.6807 0.6194,3.0663 2.5645,3.1547 0.8553,0.059 1.5038,-0.3243 1.946,-0.9433 0.4422,-0.6191 0.6784,-1.4151 0.6784,-2.2114 z" /><path
       id="path26"
       style="fill:#1c4e9d;fill-opacity:1;fill-rule:evenodd;stroke:none"
       d="m 227.7266,40.1638 v 21.2845 h -5.6012 V 40.1638 Z" /><path
       id="path28"
       style="fill:#1c4e9d;fill-opacity:1;fill-rule:evenodd;stroke:none"
       d="m 242.5164,50.3932 c -0.2361,4.0978 -3.4787,5.0117 -6.9868,5.0117 -2.9481,0 -6.8392,-1.0024 -6.8392,-4.6577 0,-5.3657 8.7551,-3.8032 8.7551,-6.4269 0,-0.9434 -0.796,-1.3561 -1.8862,-1.3561 -0.5309,0 -1.0026,0.2948 -1.3269,0.6783 -0.324,0.3829 -0.4719,0.8841 -0.3829,1.3263 h -5.3068 c -0.0292,-4.5102 3.5082,-5.2472 7.1343,-5.2472 3.3902,0 7.0753,1.0023 7.0753,4.9229 0,2.4174 -1.209,3.5079 -2.9778,4.0683 -3.5079,1.0908 -5.7779,1.0318 -5.7779,2.1226 0,0.8549 0.5012,1.3263 1.3266,1.3263 0.7662,0 1.2382,-0.206 1.533,-0.5303 0.2653,-0.2945 0.3538,-0.737 0.3538,-1.2382 z" /><path
       id="path30"
       style="fill:#1c4e9d;fill-opacity:1;fill-rule:evenodd;stroke:none"
       d="m 249.0809,40.1638 v 21.2845 h -5.6013 V 40.1638 Z m 5.3062,0 h 6.633 l -5.7484,8.5788 5.0111,6.22 h -6.1021 l -5.0998,-6.5446 z" /><path
       id="path32"
       style="fill:#1c4e9d;fill-opacity:1;fill-rule:evenodd;stroke:none"
       d="m 265.4422,44.9099 c 0,1.0321 0.6485,1.5624 1.4743,1.9751 0.7665,0.3833 1.8867,0.3243 3.0662,0.3243 0,-1.9752 -0.2066,-4.2451 -2.6237,-4.2451 -1.0613,0 -1.9168,0.8844 -1.9168,1.9457 z m 10.1117,-4.7461 c -0.2061,1.7688 -0.3243,2.4171 -0.3243,3.0362 v 7.6062 c 0.059,3.3307 -3.5668,4.5987 -6.5738,4.5987 -1.6509,0 -3.5668,-0.1769 -5.1001,-0.8845 -1.5035,-0.6783 -2.5945,-1.8867 -2.5648,-3.9798 h 5.277 c -0.0295,0.8841 0.4127,2.211 1.7688,2.2703 2.2402,0.0881 1.946,-1.7989 1.946,-3.0958 h -1.7691 c -4.8345,0 -8.1366,-1.4737 -8.1955,-5.0706 -0.0587,-3.0362 1.7688,-4.9229 5.277,-4.9229 2.7711,0 4.039,1.3856 4.7168,2.4469 h 0.0587 c 0,-1.0613 0,-1.533 0.1182,-2.0047 z" /><path
       id="path34"
       style="fill:#1c4e9d;fill-opacity:1;fill-rule:evenodd;stroke:none"
       d="m 106.4656,63.2316 v 7.6056 h 3.8911 c 5.2178,0 8.6375,1.6804 8.6375,6.8395 0,5.1587 -3.4197,6.8394 -8.6375,6.8394 h -9.7872 V 63.2316 Z m 0,11.7326 v 5.4244 h 3.0362 c 2.3287,-0.0882 3.3018,-1.1495 3.3018,-2.7119 0,-1.5628 -0.9731,-2.6238 -3.3018,-2.7125 z" /><path
       id="path36"
       style="fill:#1c4e9d;fill-opacity:1;fill-rule:evenodd;stroke:none"
       d="m 125.064,62.6357 v 21.2712 h -5.5976 V 62.6357 Z" /><path
       id="path38"
       style="fill:#1c4e9d;fill-opacity:1;fill-rule:evenodd;stroke:none"
       d="m 131.2248,67.9776 c 0,1.0321 0.6486,1.5628 1.474,1.9752 0.7665,0.3835 1.8868,0.3243 3.0657,0.3243 0,-1.9752 -0.2064,-4.2452 -2.6235,-4.2452 -1.0613,0 -1.9162,0.8842 -1.9162,1.9457 z m 10.1115,-4.746 c -0.2061,1.7685 -0.3243,2.4171 -0.3243,3.0362 v 7.6059 c 0.059,3.331 -3.5668,4.5989 -6.5741,4.5989 -1.6509,0 -3.5671,-0.1769 -5.1001,-0.8844 -1.5032,-0.678 -2.594,-1.887 -2.5642,-3.9798 h 5.2767 c -0.0295,0.8844 0.4124,2.2107 1.7688,2.2702 2.2405,0.0882 1.9454,-1.7988 1.9454,-3.0957 h -1.7685 c -4.8348,0 -8.1366,-1.474 -8.1956,-5.0706 -0.0586,-3.0362 1.7686,-4.9229 5.277,-4.9229 2.7712,0 4.0388,1.3856 4.7169,2.4469 h 0.0589 c 0,-1.0613 0,-1.5333 0.1179,-2.0047 z" /><path
       id="path40"
       style="fill:#1c4e9d;fill-opacity:1;fill-rule:evenodd;stroke:none"
       d="m 141.2901,78.0304 v -3.5376 h 2.8888 V 67.86 c -0.2948,-4.54 2.0049,-5.0706 5.8076,-5.0706 0.8254,0 1.7393,0.0587 3.0067,0.2945 v 3.3316 c -0.6486,-0.0888 -1.4148,-0.0888 -2.1518,-0.0888 -1.2974,0 -1.0616,1.9163 -1.0616,2.2992 v 5.8669 h 3.2432 v 3.5376 h -3.2432 v 4.3628 l -5.6009,-2.1226 v -2.2402 z" /><path
       id="path42"
       style="fill:#1c4e9d;fill-opacity:1;fill-rule:evenodd;stroke:none"
       d="m 161.9904,63.2316 v 11.2612 h 3.4492 v 3.5376 h -3.4492 c -0.059,1.6509 0.1768,3.3018 2.0639,3.3018 0.5011,0 1.061,-0.1769 1.5621,-0.3243 v 3.5082 c -1.002,0.2061 -2.0046,0.3535 -3.007,0.3535 -5.0408,0 -6.3379,-1.8868 -6.1613,-6.8392 h -2.8299 v -3.5376 h 2.7712 V 63.2316 Z" /><path
       id="path44"
       style="fill:#1c4e9d;fill-opacity:1;fill-rule:evenodd;stroke:none"
       d="m 170.7021,70.6309 c 0,2.0931 0.5011,4.5986 2.8593,4.5986 2.3584,0 2.8593,-2.5055 2.8593,-4.5986 0,-2.0931 -0.5009,-4.599 -2.8593,-4.599 -2.3582,0 -2.8593,2.5059 -2.8593,4.599 z m 2.8593,7.8417 c -4.6284,0 -8.6083,-2.3882 -8.6083,-7.8417 0,-5.4539 3.9799,-7.8415 8.6083,-7.8415 4.6284,0 8.608,2.3876 8.608,7.8415 0,5.4535 -3.9796,7.8417 -8.608,7.8417" /><path
       id="path46"
       style="fill:#1c4e9d;fill-opacity:1;fill-rule:evenodd;stroke:none"
       d="m 188.1825,78.0304 h -5.6894 c 0.1474,-1.5919 0.1771,-2.4763 0.1771,-3.8032 V 63.2316 h 5.601 v 5.9253 c -0.0887,2.8301 0.9139,4.5691 3.8325,4.5989 0.3829,0 0.0317,0 0.4444,-0.0298 v 4.7466 c -2.4763,0.0587 -3.5696,-0.7665 -4.2179,-3.2136 h -0.059 z" /><path
       id="path48"
       style="fill:#1c4e9d;fill-opacity:1;fill-rule:evenodd;stroke:none"
       d="m 198.6177,78.0304 h -5.542 c 0.1471,-1.5919 0.1766,-2.4763 0.1766,-3.8032 V 63.2316 h 5.6012 v 8.4898 c 0,0.1774 -0.354,3.2136 2.4174,3.2136 1.7391,0 2.0928,-1.5625 2.1521,-3.007 v -8.6964 h 5.6009 v 8.4898 c 0,0.1774 -0.3537,3.2136 2.4177,3.2136 1.7391,0 2.0928,-1.5625 2.1518,-3.007 v -8.6964 h 5.6012 v 9.9051 c 0,3.272 -2.3587,5.3359 -5.5425,5.3359 -2.2105,-0.0592 -4.2452,-1.0615 -5.2472,-2.8301 -0.6189,1.7983 -2.653,2.7417 -4.4516,2.7417 -2.2107,0 -4.1564,-0.7665 -5.1885,-2.8004 h -0.0587 z" /><path
       id="path50"
       style="fill:#1c4e9d;fill-opacity:1;fill-rule:evenodd;stroke:none"
       d="m 225.2687,67.9776 c 0,1.0321 0.6489,1.5628 1.474,1.9752 0.7665,0.3835 1.8868,0.3243 3.0663,0.3243 0,-1.9752 -0.2067,-4.2452 -2.6241,-4.2452 -1.061,0 -1.9162,0.8842 -1.9162,1.9457 z m 10.1115,-4.746 c -0.2064,1.7685 -0.324,2.4171 -0.324,3.0362 v 7.6059 c 0.0589,3.331 -3.5674,4.5989 -6.5741,4.5989 -1.6509,0 -3.5671,-0.1769 -5.1001,-0.8844 -1.5032,-0.678 -2.5943,-1.887 -2.5645,-3.9798 h 5.277 c -0.0298,0.8844 0.4127,2.2107 1.7685,2.2702 2.2405,0.0882 1.946,-1.7988 1.946,-3.0957 h -1.7694 c -4.8342,0 -8.136,-1.474 -8.195,-5.0706 -0.0586,-3.0362 1.7688,-4.9229 5.2767,-4.9229 2.7715,0 4.0388,1.3856 4.7169,2.4469 h 0.0589 c 0,-1.0613 0,-1.5333 0.1177,-2.0047 z" /><path
       id="path52"
       style="fill:#f79528;fill-opacity:1;fill-rule:evenodd;stroke:none"
       d="M 75.0212,69.0885 C 70.2746,64.779 61.5033,59.2237 53.9864,59.3623 c -7.2913,0.1349 -9.5414,1.0644 -14.2614,4.5743 -4.7239,3.5135 -6.4536,7.2932 -6.4536,7.2932 l 0.0524,-1.0043 c -0.1499,-5.3257 3.5578,-11.2082 3.5578,-11.2082 2.4004,-3.6689 8.0172,-7.9614 18.921,-8.2664 9.4141,-0.2636 17.5456,7.8752 21.9792,14.4916 0,0 3.3942,4.9841 3.8809,11.1146 0,0 -2.4346,-3.4486 -6.6415,-7.2686" /><path
       id="path54"
       style="fill:#f79528;fill-opacity:1;fill-rule:evenodd;stroke:none"
       d="m 49.4529,84.9132 c 0.3805,-2.5789 3.9702,-1.6801 3.9702,-1.6801 2.5368,0.6472 15.9653,4.6494 21.8688,5.3544 6.1523,0.7345 10.3765,2.02 11.8457,0.6426 C 88.6068,87.8528 87.5803,71.0033 83.632,61.5453 79.6833,52.0872 66.128,32.779 64.8235,34.2258 50.341,50.2914 31.9258,48.7627 31.1913,50.2319 c -0.7344,1.4692 -7.3996,20.7048 -2.6722,32.815 0.9181,2.3528 14.5446,6.3734 20.0543,9.0363 5.5097,2.6628 20.0466,8.1303 19.6321,9.6355 C 68.0071,102.4393 54.1199,99.9564 48.0084,97.7204 41.203,95.0981 26.1646,88.6793 24.5117,83.7207 22.8589,78.762 18.3614,62.2015 29.8528,48.0685 31.9456,45.4946 52.8627,41.0173 63.7095,31.788 c 0.3305,-0.2815 2.056,-0.5751 2.7836,-0.1763 5.3184,2.9143 17.4841,14.8379 21.689,27.2361 5.4667,16.1181 4.3733,30.1989 0.3331,33.0455 -4.0405,2.8468 -10.2846,2.9384 -20.8451,1.0097 -10.0077,-1.8273 -16.0058,-3.7766 -17.4561,-5.4445 0,0 -1.015,-0.7331 -0.7741,-2.4449 z" /></g></svg>