<?xml version="1.0" encoding="utf-8"?>
<!-- Generator: Adobe Illustrator 25.0.1, SVG Export Plug-In . SVG Version: 6.00 Build 0)  -->
<svg version="1.1" id="Layer_1" xmlns="http://www.w3.org/2000/svg" xmlns:xlink="http://www.w3.org/1999/xlink" x="0px" y="0px"
	 viewBox="0 0 69.67 70.43" style="enable-background:new 0 0 69.67 70.43;" xml:space="preserve">
<style type="text/css">
	.st0{fill-rule:evenodd;clip-rule:evenodd;fill:#F6A22D;}
</style>
<g>
	<path class="st0" d="M52.77,32.76c-4.75,4.31-13.52,9.86-21.03,9.73c-7.29-0.13-9.54-1.06-14.26-4.57
		c-4.72-3.51-6.45-7.29-6.45-7.29l0.05,1c-0.15,5.33,3.56,11.21,3.56,11.21c2.4,3.67,8.02,7.96,18.92,8.27
		c9.41,0.26,17.55-7.88,21.98-14.49c0,0,3.39-4.98,3.88-11.11C59.41,25.49,56.98,28.94,52.77,32.76"/>
	<path class="st0" d="M27.2,16.93c0.38,2.58,3.97,1.68,3.97,1.68c2.54-0.65,15.97-4.65,21.87-5.35c6.15-0.73,10.38-2.02,11.85-0.64
		c1.47,1.38,0.44,18.23-3.51,27.68c-3.95,9.46-17.5,28.77-18.81,27.32C28.09,51.55,9.68,53.08,8.94,51.61
		c-0.73-1.47-7.4-20.7-2.67-32.81c0.92-2.35,14.54-6.37,20.05-9.04c5.51-2.66,20.05-8.13,19.63-9.64c-0.2-0.72-14.09,1.76-20.2,4
		c-6.81,2.62-21.84,9.04-23.5,14C0.61,23.08-3.89,39.64,7.6,53.78c2.09,2.57,23.01,7.05,33.86,16.28c0.33,0.28,2.06,0.58,2.78,0.18
		C49.56,67.32,61.73,55.4,65.93,43c5.47-16.12,4.37-30.2,0.33-33.05c-4.04-2.85-10.28-2.94-20.85-1.01
		c-10.01,1.83-16.01,3.78-17.46,5.44c0,0-1.01,0.73-0.77,2.44L27.2,16.93z"/>
</g>
</svg>
