<?xml version="1.0" encoding="utf-8"?>
<!-- Generator: Adobe Illustrator 25.0.1, SVG Export Plug-In . SVG Version: 6.00 Build 0)  -->
<svg version="1.1" id="Layer_1" xmlns="http://www.w3.org/2000/svg" xmlns:xlink="http://www.w3.org/1999/xlink" x="0px" y="0px"
	 viewBox="0 0 253.31 70.43" style="enable-background:new 0 0 253.31 70.43;" xml:space="preserve">
<style type="text/css">
	.st0{fill-rule:evenodd;clip-rule:evenodd;fill:#FFFFFF;}
	.st1{fill-rule:evenodd;clip-rule:evenodd;fill:#F6A22D;}
</style>
<path class="st0" d="M88.1,62.12c7.05,0,11.03-4.07,11.03-11.08c0-7.02-3.98-11.08-11.03-11.08s-11.03,4.07-11.03,11.08
	C77.07,58.06,81.05,62.12,88.1,62.12 M92.93,51.13c0,3.15-0.83,6.87-4.83,6.87c-4.01,0-4.83-3.71-4.83-6.87
	c0-3.33,0.83-7.05,4.83-7.05C92.1,44.08,92.93,47.8,92.93,51.13z"/>
<path class="st0" d="M99.75,61.68h5.45l0.15-2.18h0.12c0.38,1.5,2.42,2.62,4.13,2.62c4.89,0,6.9-3.57,6.9-8.08
	c0-4.19-2.03-7.61-6.57-7.61c-1.68,0-3.48,0.68-4.51,2.01h-0.06V40.4h-5.6V61.68z M108.09,49.68c2.39,0,2.65,2.71,2.65,4.54
	c0,1.92-0.41,4.66-2.86,4.66c-2.03,0-2.54-2.74-2.54-4.39C105.35,52.51,105.55,49.68,108.09,49.68z"/>
<polygon class="st0" points="126.91,46.88 123.72,57.17 123.66,57.17 120.75,46.88 114.76,46.88 120.95,62.12 118.86,67.34 
	124.02,67.34 132.07,46.88 "/>
<polygon class="st0" points="141.43,61.68 144.32,51.36 144.38,51.36 147.06,61.68 153.25,61.68 157.91,46.88 152.96,46.88 
	150.36,57.32 150.3,57.32 147.74,46.88 141.55,46.88 138.95,57.38 138.9,57.38 136.51,46.88 130.85,46.88 135.36,61.68 "/>
<path class="st0" d="M171.63,61.68c-0.21-1.77-0.32-2.42-0.32-3.04v-7.61c0.06-3.33-3.57-4.6-6.57-4.6c-1.65,0-3.57,0.18-5.1,0.88
	c-1.5,0.68-2.59,1.89-2.56,3.98h5.28c-0.03-0.88,0.41-2.21,1.77-2.27c2.24-0.09,1.95,1.8,1.95,3.1h-1.77c-4.83,0-8.14,1.47-8.2,5.07
	c-0.06,3.04,1.77,4.92,5.28,4.92c2.77,0,4.04-1.39,4.72-2.45h0.06c0,1.06,0,1.53,0.12,2H171.63z M161.52,56.94
	c0-1.03,0.65-1.56,1.47-1.98c0.77-0.38,1.89-0.32,3.07-0.32c0,1.98-0.21,4.25-2.62,4.25C162.38,58.88,161.52,58,161.52,56.94z"/>
<path class="st0" d="M171.48,46.88v3.54h2.89v6.63c-0.29,4.54,2,5.07,5.81,5.07c0.83,0,1.74-0.06,3.01-0.29V58.5
	c-0.65,0.09-1.41,0.09-2.15,0.09c-1.3,0-1.06-1.92-1.06-2.3v-5.87h3.24v-3.54h-3.24v-4.36l-5.6,2.12v2.24H171.48z"/>
<path class="st0" d="M188.51,52.4c0.15-1.68,0.62-3.07,2.56-3.15c0.86-0.06,1.5,0.32,1.95,0.94c0.44,0.62,0.68,1.42,0.68,2.21
	H188.51z M199,55.4c0-5.51-1.92-8.96-7.93-8.96c-4.45,0-7.96,2.65-7.96,7.34c0,5.81,2.36,8.34,8.28,8.34c1.74,0,3.39-0.32,4.69-1.15
	c1.41-0.83,2.62-2.21,2.8-4.13h-5.19c-0.21,1.39-1.18,2.12-2.74,2.12c-2.09,0-2.59-1.65-2.56-3.57H199z"/>
<rect x="199.88" y="40.4" class="st0" width="5.6" height="21.28"/>
<path class="st0" d="M220.27,51.45c-0.24-4.1-3.48-5.01-6.99-5.01c-2.95,0-6.84,1-6.84,4.66c0,5.37,8.76,3.8,8.76,6.43
	c0,0.94-0.8,1.36-1.89,1.36c-0.53,0-1-0.29-1.33-0.68c-0.32-0.38-0.47-0.88-0.38-1.33h-5.31c-0.03,4.51,3.51,5.25,7.13,5.25
	c3.39,0,7.08-1,7.08-4.92c0-2.42-1.21-3.51-2.98-4.07c-3.51-1.09-5.78-1.03-5.78-2.12c0-0.85,0.5-1.33,1.33-1.33
	c0.77,0,1.24,0.21,1.53,0.53c0.27,0.29,0.35,0.74,0.35,1.24H220.27z"/>
<path class="st0" d="M232.14,61.68h6.63l-5.75-8.58l5.01-6.22h-6.1l-5.1,6.54L232.14,61.68z M226.83,61.68V40.4h-5.6v21.28H226.83z"
	/>
<path class="st0" d="M253.31,61.68c-0.21-1.77-0.32-2.42-0.32-3.04v-7.61c0.06-3.33-3.57-4.6-6.57-4.6c-1.65,0-3.57,0.18-5.1,0.88
	c-1.5,0.68-2.59,1.89-2.56,3.98h5.28c-0.03-0.88,0.41-2.21,1.77-2.27c2.24-0.09,1.95,1.8,1.95,3.1h-1.77c-4.83,0-8.14,1.47-8.2,5.07
	c-0.06,3.04,1.77,4.92,5.28,4.92c2.77,0,4.04-1.39,4.72-2.45h0.06c0,1.06,0,1.53,0.12,2H253.31z M243.19,56.94
	c0-1.03,0.65-1.56,1.47-1.98c0.77-0.38,1.89-0.32,3.07-0.32c0,1.98-0.21,4.25-2.62,4.25C244.05,58.88,243.19,58,243.19,56.94z"/>
<path class="st0" d="M84.22,26.88v-5.42h3.04c2.33,0.09,3.3,1.15,3.3,2.71c0,1.56-0.97,2.62-3.3,2.71H84.22z M84.22,38.61v-7.61
	h3.89c5.22,0,8.64-1.68,8.64-6.84c0-5.16-3.42-6.84-8.64-6.84h-9.79v21.28H84.22z"/>
<rect x="97.22" y="17.94" class="st0" width="5.6" height="21.27"/>
<path class="st0" d="M119.09,38.61c-0.21-1.77-0.32-2.42-0.32-3.04v-7.61c0.06-3.33-3.57-4.6-6.57-4.6c-1.65,0-3.57,0.18-5.1,0.88
	c-1.5,0.68-2.59,1.89-2.56,3.98h5.28c-0.03-0.88,0.41-2.21,1.77-2.27c2.24-0.09,1.95,1.8,1.95,3.1h-1.77c-4.83,0-8.14,1.47-8.2,5.07
	c-0.06,3.04,1.77,4.92,5.28,4.92c2.77,0,4.04-1.39,4.72-2.45h0.06c0,1.06,0,1.53,0.12,2H119.09z M108.98,33.87
	c0-1.03,0.65-1.56,1.47-1.98c0.77-0.38,1.89-0.32,3.07-0.32c0,1.98-0.21,4.25-2.62,4.25C109.83,35.81,108.98,34.93,108.98,33.87z"/>
<path class="st0" d="M119.04,23.82v3.54h2.89v6.63c-0.29,4.54,2,5.07,5.81,5.07c0.83,0,1.74-0.06,3.01-0.29v-3.33
	c-0.65,0.09-1.41,0.09-2.15,0.09c-1.3,0-1.06-1.92-1.06-2.3v-5.87h3.24v-3.54h-3.24v-4.36l-5.6,2.12v2.24H119.04z"/>
<path class="st0" d="M139.74,38.61V27.35h3.45v-3.54h-3.45c-0.06-1.65,0.18-3.3,2.06-3.3c0.5,0,1.06,0.18,1.56,0.32v-3.51
	c-1-0.21-2-0.35-3.01-0.35c-5.04,0-6.34,1.89-6.16,6.84h-2.83v3.54h2.77v11.26H139.74z"/>
<path class="st0" d="M151.31,23.37c-4.63,0-8.61,2.39-8.61,7.84c0,5.45,3.98,7.84,8.61,7.84s8.61-2.39,8.61-7.84
	C159.92,25.76,155.94,23.37,151.31,23.37 M148.45,31.21c0-2.09,0.5-4.6,2.86-4.6c2.36,0,2.86,2.51,2.86,4.6c0,2.09-0.5,4.6-2.86,4.6
	C148.96,35.81,148.45,33.31,148.45,31.21z"/>
<path class="st0" d="M165.93,23.82h-5.69c0.15,1.59,0.18,2.48,0.18,3.8v11h5.6v-5.93c-0.09-2.83,0.91-4.57,3.83-4.6
	c0.38,0,0.03,0,0.44,0.03v-4.75c-2.48-0.06-3.57,0.77-4.22,3.21h-0.06L165.93,23.82z"/>
<path class="st0" d="M176.37,23.82h-5.54c0.15,1.59,0.18,2.48,0.18,3.8v11h5.6v-8.49c0-0.18-0.35-3.21,2.42-3.21
	c1.74,0,2.09,1.56,2.15,3.01v8.7h5.6v-8.49c0-0.18-0.35-3.21,2.42-3.21c1.74,0,2.09,1.56,2.15,3.01v8.7h5.6v-9.91
	c0-3.27-2.36-5.34-5.54-5.34c-2.21,0.06-4.25,1.06-5.25,2.83c-0.62-1.8-2.65-2.74-4.45-2.74c-2.21,0-4.16,0.77-5.19,2.8h-0.06
	L176.37,23.82z"/>
<path class="st0" d="M213.13,38.61c-0.21-1.77-0.32-2.42-0.32-3.04v-7.61c0.06-3.33-3.57-4.6-6.57-4.6c-1.65,0-3.57,0.18-5.1,0.88
	c-1.5,0.68-2.59,1.89-2.56,3.98h5.28c-0.03-0.88,0.41-2.21,1.77-2.27c2.24-0.09,1.95,1.8,1.95,3.1h-1.77
	c-4.83,0-8.14,1.47-8.19,5.07c-0.06,3.04,1.77,4.92,5.28,4.92c2.77,0,4.04-1.39,4.72-2.45h0.06c0,1.06,0,1.53,0.12,2H213.13z
	 M203.02,33.87c0-1.03,0.65-1.56,1.47-1.98c0.77-0.38,1.89-0.32,3.07-0.32c0,1.98-0.21,4.25-2.62,4.25
	C203.88,35.81,203.02,34.93,203.02,33.87z"/>
<path class="st1" d="M52.77,32.76c-4.75,4.31-13.52,9.86-21.03,9.73c-7.29-0.13-9.54-1.06-14.26-4.57
	c-4.72-3.51-6.45-7.29-6.45-7.29l0.05,1c-0.15,5.33,3.56,11.21,3.56,11.21c2.4,3.67,8.02,7.96,18.92,8.27
	c9.41,0.26,17.55-7.88,21.98-14.49c0,0,3.39-4.98,3.88-11.11C59.41,25.49,56.98,28.94,52.77,32.76"/>
<path class="st1" d="M27.2,16.93c0.38,2.58,3.97,1.68,3.97,1.68c2.54-0.65,15.97-4.65,21.87-5.35c6.15-0.73,10.38-2.02,11.85-0.64
	c1.47,1.38,0.44,18.23-3.51,27.68c-3.95,9.46-17.5,28.77-18.81,27.32C28.09,51.55,9.68,53.08,8.94,51.61
	c-0.73-1.47-7.4-20.7-2.67-32.81c0.92-2.35,14.54-6.37,20.05-9.04c5.51-2.66,20.05-8.13,19.63-9.64c-0.2-0.72-14.09,1.76-20.2,4
	c-6.81,2.62-21.84,9.04-23.5,14C0.61,23.08-3.89,39.64,7.6,53.78c2.09,2.57,23.01,7.05,33.86,16.28c0.33,0.28,2.06,0.58,2.78,0.18
	C49.56,67.32,61.73,55.4,65.93,43c5.47-16.12,4.37-30.2,0.33-33.05c-4.04-2.85-10.28-2.94-20.85-1.01
	c-10.01,1.83-16.01,3.78-17.46,5.44c0,0-1.01,0.73-0.77,2.44L27.2,16.93z"/>
</svg>
