<?xml version="1.0" encoding="utf-8"?>
<!-- Generator: Adobe Illustrator 25.0.1, SVG Export Plug-In . SVG Version: 6.00 Build 0)  -->
<svg version="1.1" xmlns="http://www.w3.org/2000/svg" xmlns:xlink="http://www.w3.org/1999/xlink" x="0px" y="0px"
	 viewBox="0 0 48.65 48.65" style="enable-background:new 0 0 48.65 48.65;" xml:space="preserve">
<style type="text/css">
	.st0{fill:#5CA658;}
	.st1{fill:none;stroke:#244022;stroke-width:10;stroke-linecap:round;stroke-linejoin:round;stroke-miterlimit:10;}
	.st2{fill:none;stroke:#000000;stroke-width:20;stroke-linecap:round;stroke-linejoin:round;stroke-miterlimit:10;}
	.st3{fill:none;stroke:#000000;stroke-width:25;stroke-linecap:round;stroke-linejoin:round;stroke-miterlimit:10;}
	.st4{fill:none;stroke:#000000;stroke-miterlimit:10;}
	.st5{fill:none;stroke:#000000;stroke-width:12;stroke-linecap:round;stroke-miterlimit:10;}
	.st6{fill:none;stroke:#478146;stroke-width:12;stroke-linecap:round;stroke-miterlimit:10;}
	.st7{fill:#264328;}
	.st8{fill:#41443F;stroke:#000000;stroke-width:12;stroke-linecap:round;stroke-miterlimit:10;}
	.st9{fill:#5CA659;}
	.st10{fill:#41443F;stroke:#244022;stroke-width:12;stroke-linecap:round;stroke-miterlimit:10;}
	.st11{fill:none;stroke:#244022;stroke-width:12;stroke-linecap:round;stroke-miterlimit:10;}
	.st12{fill:#244022;}
	.st13{fill:#41443F;stroke:#5CA659;stroke-width:12;stroke-linecap:round;stroke-miterlimit:10;}
	.st14{fill:none;stroke:#5CA659;stroke-width:12;stroke-linecap:round;stroke-miterlimit:10;}
	.st15{fill:none;stroke:#000000;stroke-width:10;stroke-linecap:round;stroke-linejoin:round;stroke-miterlimit:10;}
	.st16{fill:none;stroke:#000000;stroke-width:10;stroke-miterlimit:10;}
	.st17{fill:none;stroke:#000000;stroke-width:11;stroke-miterlimit:10;}
	.st18{fill:none;stroke:#000000;stroke-width:5;stroke-miterlimit:10;}
	.st19{stroke:#000000;stroke-width:5;stroke-miterlimit:10;}
	.st20{fill:none;stroke:#000000;stroke-width:15;stroke-miterlimit:10;}
	.st21{stroke:#000000;stroke-width:10;stroke-linecap:round;stroke-miterlimit:10;}
	.st22{stroke:#244022;stroke-width:10;stroke-linecap:round;stroke-miterlimit:10;}
	.st23{fill:none;stroke:#000000;stroke-width:10;stroke-linecap:round;stroke-miterlimit:10;}
	.st24{fill:none;stroke:#244022;stroke-width:10;stroke-linecap:round;stroke-miterlimit:10;}
	.st25{fill:none;stroke:#000000;stroke-width:20;stroke-miterlimit:10;}
	.st26{fill:none;stroke:#000000;stroke-width:0.25;stroke-miterlimit:10;}
	.st27{fill:#F47C20;}
	.st28{fill:#244022;stroke:#000000;stroke-width:10;stroke-linecap:round;stroke-miterlimit:10;}
	.st29{fill:none;stroke:#000000;stroke-width:9;stroke-linecap:round;stroke-miterlimit:10;}
	.st30{fill:none;stroke:#000000;stroke-width:9;stroke-miterlimit:10;}
	.st31{fill:none;stroke:#000000;stroke-width:15;stroke-linecap:round;stroke-miterlimit:10;}
	.st32{fill:none;stroke:#000000;stroke-width:20;stroke-linecap:round;stroke-miterlimit:10;}
	.st33{fill:#41443F;}
	.st34{fill:none;stroke:#000000;stroke-width:13;stroke-linecap:round;stroke-miterlimit:10;}
	.st35{stroke:#000000;stroke-width:15;stroke-linecap:round;stroke-linejoin:round;stroke-miterlimit:10;}
	.st36{stroke:#000000;stroke-width:15;stroke-miterlimit:10;}
	.st37{fill:none;stroke:#000000;stroke-width:25;stroke-miterlimit:10;}
	.st38{fill:none;stroke:#000000;stroke-width:25;stroke-linecap:round;stroke-miterlimit:10;}
	
		.st39{display:none;opacity:0.35;fill:none;stroke:#000000;stroke-width:20;stroke-linecap:round;stroke-linejoin:round;stroke-miterlimit:10;}
	.st40{display:none;fill:none;stroke:#000000;stroke-width:10;stroke-miterlimit:10;}
	.st41{display:none;fill:none;}
	.st42{fill:#FFFFFF;stroke:#000000;stroke-width:12;stroke-linecap:round;stroke-linejoin:round;stroke-miterlimit:10;}
	.st43{fill:#56B4E5;}
	.st44{fill:#FFFFFF;}
	.st45{fill:#4EB965;}
</style>
<g id="Layer_1">
</g>
<g id="Layer_2">
	<path class="st27" d="M42.86,4.29H5.79c-3.02,0-5.48,2.46-5.48,5.48v29.11c0,3.02,2.46,5.48,5.48,5.48h37.08
		c3.02,0,5.48-2.46,5.48-5.48V9.77C48.34,6.75,45.88,4.29,42.86,4.29z M34.78,23.62l9.35-9.34v18.69L34.78,23.62z M42.86,8.5
		c0.29,0,0.57,0.11,0.78,0.29L25.22,27.22c-0.24,0.24-0.55,0.37-0.89,0.37c-0.34,0-0.66-0.13-0.89-0.37L5,8.79
		C5.22,8.62,5.49,8.5,5.79,8.5H42.86z M13.87,23.62l-9.35,9.35V14.27L13.87,23.62z M42.86,40.14H5.79c-0.67,0-1.24-0.55-1.26-1.22
		L16.85,26.6l3.6,3.6c1.07,1.07,2.47,1.6,3.88,1.6c1.4,0,2.81-0.53,3.88-1.6l3.6-3.6l12.32,12.32
		C44.1,39.59,43.53,40.14,42.86,40.14z"/>
</g>
</svg>
