<?xml version="1.0" encoding="utf-8"?>
<!-- Generator: Adobe Illustrator 25.0.1, SVG Export Plug-In . SVG Version: 6.00 Build 0)  -->
<svg version="1.1" xmlns="http://www.w3.org/2000/svg" xmlns:xlink="http://www.w3.org/1999/xlink" x="0px" y="0px"
	 viewBox="0 0 52.37 48.65" style="enable-background:new 0 0 52.37 48.65;" xml:space="preserve">
<style type="text/css">
	.st0{fill:#5CA658;}
	.st1{fill:none;stroke:#244022;stroke-width:10;stroke-linecap:round;stroke-linejoin:round;stroke-miterlimit:10;}
	.st2{fill:none;stroke:#000000;stroke-width:20;stroke-linecap:round;stroke-linejoin:round;stroke-miterlimit:10;}
	.st3{fill:none;stroke:#000000;stroke-width:25;stroke-linecap:round;stroke-linejoin:round;stroke-miterlimit:10;}
	.st4{fill:none;stroke:#000000;stroke-miterlimit:10;}
	.st5{fill:none;stroke:#000000;stroke-width:12;stroke-linecap:round;stroke-miterlimit:10;}
	.st6{fill:none;stroke:#478146;stroke-width:12;stroke-linecap:round;stroke-miterlimit:10;}
	.st7{fill:#264328;}
	.st8{fill:#41443F;stroke:#000000;stroke-width:12;stroke-linecap:round;stroke-miterlimit:10;}
	.st9{fill:#5CA659;}
	.st10{fill:#41443F;stroke:#244022;stroke-width:12;stroke-linecap:round;stroke-miterlimit:10;}
	.st11{fill:none;stroke:#244022;stroke-width:12;stroke-linecap:round;stroke-miterlimit:10;}
	.st12{fill:#244022;}
	.st13{fill:#41443F;stroke:#5CA659;stroke-width:12;stroke-linecap:round;stroke-miterlimit:10;}
	.st14{fill:none;stroke:#5CA659;stroke-width:12;stroke-linecap:round;stroke-miterlimit:10;}
	.st15{fill:none;stroke:#000000;stroke-width:10;stroke-linecap:round;stroke-linejoin:round;stroke-miterlimit:10;}
	.st16{fill:none;stroke:#000000;stroke-width:10;stroke-miterlimit:10;}
	.st17{fill:none;stroke:#000000;stroke-width:11;stroke-miterlimit:10;}
	.st18{fill:none;stroke:#000000;stroke-width:5;stroke-miterlimit:10;}
	.st19{stroke:#000000;stroke-width:5;stroke-miterlimit:10;}
	.st20{fill:none;stroke:#000000;stroke-width:15;stroke-miterlimit:10;}
	.st21{stroke:#000000;stroke-width:10;stroke-linecap:round;stroke-miterlimit:10;}
	.st22{stroke:#244022;stroke-width:10;stroke-linecap:round;stroke-miterlimit:10;}
	.st23{fill:none;stroke:#000000;stroke-width:10;stroke-linecap:round;stroke-miterlimit:10;}
	.st24{fill:none;stroke:#244022;stroke-width:10;stroke-linecap:round;stroke-miterlimit:10;}
	.st25{fill:none;stroke:#000000;stroke-width:20;stroke-miterlimit:10;}
	.st26{fill:none;stroke:#000000;stroke-width:0.25;stroke-miterlimit:10;}
	.st27{fill:#F47C20;}
	.st28{fill:#244022;stroke:#000000;stroke-width:10;stroke-linecap:round;stroke-miterlimit:10;}
	.st29{fill:none;stroke:#000000;stroke-width:9;stroke-linecap:round;stroke-miterlimit:10;}
	.st30{fill:none;stroke:#000000;stroke-width:9;stroke-miterlimit:10;}
	.st31{fill:none;stroke:#000000;stroke-width:15;stroke-linecap:round;stroke-miterlimit:10;}
	.st32{fill:none;stroke:#000000;stroke-width:20;stroke-linecap:round;stroke-miterlimit:10;}
	.st33{fill:#41443F;}
	.st34{fill:none;stroke:#000000;stroke-width:13;stroke-linecap:round;stroke-miterlimit:10;}
	.st35{stroke:#000000;stroke-width:15;stroke-linecap:round;stroke-linejoin:round;stroke-miterlimit:10;}
	.st36{stroke:#000000;stroke-width:15;stroke-miterlimit:10;}
	.st37{fill:none;stroke:#000000;stroke-width:25;stroke-miterlimit:10;}
	.st38{fill:none;stroke:#000000;stroke-width:25;stroke-linecap:round;stroke-miterlimit:10;}
	
		.st39{display:none;opacity:0.35;fill:none;stroke:#000000;stroke-width:20;stroke-linecap:round;stroke-linejoin:round;stroke-miterlimit:10;}
	.st40{display:none;fill:none;stroke:#000000;stroke-width:10;stroke-miterlimit:10;}
	.st41{display:none;fill:none;}
	.st42{fill:#FFFFFF;stroke:#000000;stroke-width:12;stroke-linecap:round;stroke-linejoin:round;stroke-miterlimit:10;}
	.st43{fill:#56B4E5;}
	.st44{fill:#FFFFFF;}
	.st45{fill:#4EB965;}
</style>
<g id="Layer_1">
</g>
<g id="Layer_2">
	<g>
		<path class="st27" d="M20.99,33.36c0.65,0,1.3-0.25,1.8-0.75l6.48-6.48c0.03-0.03,0.05-0.05,0.07-0.08
			c0.03-0.03,0.06-0.07,0.09-0.11c0.03-0.04,0.06-0.08,0.09-0.12c0.02-0.03,0.04-0.05,0.06-0.08c0.03-0.04,0.05-0.09,0.08-0.13
			c0.02-0.03,0.03-0.05,0.05-0.08c0.02-0.04,0.04-0.09,0.06-0.13c0.01-0.03,0.03-0.06,0.04-0.09c0.02-0.04,0.03-0.08,0.05-0.13
			c0.01-0.04,0.03-0.07,0.04-0.11c0.01-0.04,0.02-0.09,0.03-0.13c0.01-0.04,0.02-0.08,0.03-0.11c0.01-0.05,0.02-0.1,0.02-0.15
			c0-0.03,0.01-0.07,0.01-0.1c0.01-0.08,0.01-0.17,0.01-0.25V13.82c0-1.41-1.14-2.55-2.55-2.55c-1.41,0-2.55,1.14-2.55,2.55v9.45
			l-5.73,5.73c-0.99,0.99-0.99,2.61,0,3.6C19.69,33.11,20.34,33.36,20.99,33.36z"/>
		<path class="st27" d="M37.66,14.92c-0.05-0.11-0.11-0.23-0.18-0.33c-0.07-0.11-0.15-0.2-0.24-0.29c-0.09-0.09-0.19-0.17-0.29-0.24
			c-0.1-0.07-0.22-0.13-0.33-0.18c-0.11-0.05-0.23-0.08-0.36-0.11c-0.25-0.05-0.5-0.05-0.75,0c-0.12,0.02-0.24,0.06-0.36,0.11
			c-0.12,0.05-0.23,0.11-0.33,0.18c-0.1,0.07-0.2,0.15-0.29,0.24c-0.09,0.09-0.17,0.18-0.24,0.29c-0.07,0.1-0.13,0.21-0.18,0.33
			c-0.05,0.11-0.08,0.23-0.11,0.36c-0.03,0.12-0.04,0.25-0.04,0.37c0,0.12,0.01,0.25,0.04,0.37c0.03,0.12,0.06,0.24,0.11,0.36
			c0.05,0.11,0.11,0.23,0.18,0.33c0.07,0.1,0.15,0.2,0.24,0.29c0.09,0.09,0.19,0.17,0.29,0.24c0.1,0.07,0.21,0.13,0.33,0.17
			c0.11,0.05,0.23,0.09,0.36,0.11c0.12,0.03,0.25,0.04,0.37,0.04c0.12,0,0.25-0.01,0.37-0.04c0.12-0.02,0.24-0.06,0.36-0.11
			c0.11-0.05,0.23-0.11,0.33-0.17c0.1-0.07,0.2-0.15,0.29-0.24c0.09-0.09,0.17-0.19,0.24-0.29c0.07-0.1,0.13-0.21,0.18-0.33
			c0.05-0.11,0.08-0.24,0.11-0.36c0.02-0.12,0.04-0.25,0.04-0.37c0-0.12-0.01-0.25-0.04-0.37C37.74,15.16,37.7,15.04,37.66,14.92z"
			/>
		<path class="st27" d="M37.48,23.26c-0.07,0.1-0.13,0.21-0.18,0.33c-0.05,0.11-0.09,0.23-0.11,0.36c-0.03,0.12-0.04,0.25-0.04,0.37
			c0,0.12,0.01,0.25,0.04,0.37c0.02,0.12,0.06,0.24,0.11,0.36c0.05,0.12,0.11,0.23,0.18,0.33c0.07,0.1,0.15,0.2,0.24,0.29
			c0.09,0.09,0.19,0.17,0.29,0.24c0.1,0.07,0.21,0.13,0.33,0.18c0.12,0.05,0.24,0.08,0.36,0.11c0.12,0.03,0.25,0.04,0.37,0.04
			s0.25-0.01,0.37-0.04c0.12-0.03,0.24-0.06,0.36-0.11c0.11-0.05,0.23-0.11,0.33-0.18c0.1-0.07,0.2-0.15,0.29-0.24
			c0.09-0.09,0.17-0.19,0.24-0.29c0.07-0.1,0.13-0.21,0.18-0.33c0.05-0.11,0.08-0.23,0.11-0.36c0.02-0.12,0.04-0.25,0.04-0.37
			c0-0.5-0.2-0.99-0.56-1.35c-0.09-0.09-0.19-0.17-0.29-0.24c-0.1-0.07-0.22-0.13-0.33-0.18c-0.11-0.05-0.23-0.08-0.36-0.11
			c-0.25-0.05-0.5-0.05-0.75,0c-0.12,0.03-0.24,0.06-0.36,0.11c-0.11,0.05-0.23,0.11-0.33,0.18c-0.1,0.07-0.2,0.15-0.29,0.24
			C37.63,23.06,37.55,23.16,37.48,23.26z"/>
		<path class="st27" d="M34.02,33.12c0.03,0.12,0.06,0.24,0.11,0.36c0.05,0.12,0.11,0.23,0.18,0.33c0.07,0.1,0.15,0.2,0.24,0.29
			c0.09,0.09,0.19,0.17,0.29,0.24c0.1,0.07,0.21,0.13,0.33,0.18c0.12,0.05,0.24,0.08,0.36,0.11c0.12,0.03,0.25,0.04,0.37,0.04
			s0.25-0.01,0.37-0.04c0.12-0.03,0.24-0.06,0.36-0.11c0.11-0.05,0.23-0.11,0.33-0.18c0.1-0.07,0.2-0.15,0.29-0.24
			c0.09-0.09,0.17-0.19,0.24-0.29c0.07-0.1,0.13-0.21,0.18-0.33c0.05-0.11,0.08-0.23,0.11-0.36c0.03-0.12,0.04-0.25,0.04-0.37
			s-0.01-0.25-0.04-0.37c-0.02-0.12-0.06-0.24-0.11-0.36c-0.05-0.11-0.11-0.22-0.18-0.33c-0.07-0.1-0.15-0.2-0.24-0.29
			c-0.09-0.09-0.19-0.17-0.29-0.24c-0.1-0.07-0.22-0.13-0.33-0.18c-0.11-0.05-0.23-0.08-0.36-0.11c-0.25-0.05-0.5-0.05-0.75,0
			c-0.12,0.03-0.24,0.06-0.36,0.11c-0.11,0.05-0.22,0.11-0.33,0.18c-0.1,0.07-0.2,0.15-0.29,0.24c-0.09,0.09-0.17,0.19-0.24,0.29
			c-0.07,0.1-0.13,0.21-0.18,0.33c-0.05,0.12-0.08,0.24-0.11,0.36c-0.03,0.12-0.04,0.25-0.04,0.37S33.99,33,34.02,33.12z"/>
		<path class="st27" d="M29.06,34.86c-0.07-0.1-0.15-0.2-0.24-0.29c-0.09-0.09-0.18-0.17-0.29-0.24c-0.1-0.07-0.21-0.13-0.33-0.18
			c-0.11-0.05-0.23-0.08-0.36-0.11c-0.25-0.05-0.5-0.05-0.75,0c-0.12,0.03-0.24,0.06-0.36,0.11c-0.11,0.05-0.23,0.11-0.33,0.18
			c-0.1,0.07-0.2,0.15-0.29,0.24c-0.09,0.09-0.17,0.19-0.24,0.29c-0.07,0.1-0.13,0.22-0.17,0.33c-0.05,0.11-0.09,0.23-0.11,0.36
			c-0.03,0.12-0.04,0.25-0.04,0.37s0.01,0.25,0.04,0.37c0.02,0.12,0.06,0.24,0.11,0.36c0.05,0.11,0.1,0.22,0.17,0.33
			c0.07,0.1,0.15,0.2,0.24,0.29c0.09,0.09,0.19,0.17,0.29,0.24c0.1,0.07,0.21,0.13,0.33,0.18c0.11,0.05,0.24,0.08,0.36,0.11
			c0.12,0.03,0.25,0.04,0.37,0.04c0.12,0,0.25-0.01,0.37-0.04c0.12-0.03,0.24-0.06,0.36-0.11c0.11-0.05,0.23-0.11,0.33-0.18
			c0.11-0.07,0.2-0.15,0.29-0.24c0.09-0.09,0.17-0.19,0.24-0.29c0.07-0.1,0.13-0.21,0.18-0.33c0.05-0.12,0.08-0.24,0.11-0.36
			c0.02-0.12,0.04-0.25,0.04-0.37s-0.01-0.25-0.04-0.37c-0.03-0.12-0.06-0.24-0.11-0.36C29.19,35.08,29.13,34.96,29.06,34.86z"/>
		<path class="st27" d="M27.47,0.11c-1.41,0-2.55,1.14-2.55,2.55s1.14,2.55,2.55,2.55c10.54,0,19.12,8.58,19.12,19.12
			s-8.58,19.12-19.12,19.12c-9.68,0-17.7-7.23-18.94-16.58c0.85-0.05,1.63-0.52,2.06-1.26c0.45-0.79,0.45-1.76,0-2.55l-2.57-4.46
			c-0.46-0.79-1.3-1.27-2.21-1.27c-0.91,0-1.75,0.49-2.21,1.27l-2.57,4.46c-0.45,0.79-0.45,1.76,0,2.55
			c0.45,0.79,1.3,1.27,2.21,1.27h0.16c1.28,12.16,11.59,21.66,24.08,21.66c13.35,0,24.21-10.86,24.21-24.21
			C51.68,10.97,40.82,0.11,27.47,0.11z"/>
	</g>
</g>
</svg>
