<?xml version="1.0" encoding="utf-8"?>
<!-- Generator: Adobe Illustrator 25.0.1, SVG Export Plug-In . SVG Version: 6.00 Build 0)  -->
<svg version="1.1" xmlns="http://www.w3.org/2000/svg" xmlns:xlink="http://www.w3.org/1999/xlink" x="0px" y="0px"
	 viewBox="0 0 226.77 226.77" style="enable-background:new 0 0 226.77 226.77;" xml:space="preserve">
<style type="text/css">
	.st0{fill:#5CA658;}
	.st1{fill:none;stroke:#244022;stroke-width:10;stroke-linecap:round;stroke-linejoin:round;stroke-miterlimit:10;}
	.st2{fill:none;stroke:#000000;stroke-width:20;stroke-linecap:round;stroke-linejoin:round;stroke-miterlimit:10;}
	.st3{fill:none;stroke:#000000;stroke-width:25;stroke-linecap:round;stroke-linejoin:round;stroke-miterlimit:10;}
	.st4{fill:none;stroke:#000000;stroke-miterlimit:10;}
	.st5{fill:none;stroke:#000000;stroke-width:12;stroke-linecap:round;stroke-miterlimit:10;}
	.st6{fill:none;stroke:#478146;stroke-width:12;stroke-linecap:round;stroke-miterlimit:10;}
	.st7{fill:#264328;}
	.st8{fill:#41443F;stroke:#000000;stroke-width:12;stroke-linecap:round;stroke-miterlimit:10;}
	.st9{fill:#5CA659;}
	.st10{fill:#41443F;stroke:#244022;stroke-width:12;stroke-linecap:round;stroke-miterlimit:10;}
	.st11{fill:none;stroke:#244022;stroke-width:12;stroke-linecap:round;stroke-miterlimit:10;}
	.st12{fill:#244022;}
	.st13{fill:#41443F;stroke:#5CA659;stroke-width:12;stroke-linecap:round;stroke-miterlimit:10;}
	.st14{fill:none;stroke:#5CA659;stroke-width:12;stroke-linecap:round;stroke-miterlimit:10;}
	.st15{fill:none;stroke:#000000;stroke-width:10;stroke-linecap:round;stroke-linejoin:round;stroke-miterlimit:10;}
	.st16{fill:none;stroke:#000000;stroke-width:10;stroke-miterlimit:10;}
	.st17{fill:none;stroke:#000000;stroke-width:11;stroke-miterlimit:10;}
	.st18{fill:none;stroke:#000000;stroke-width:5;stroke-miterlimit:10;}
	.st19{stroke:#000000;stroke-width:5;stroke-miterlimit:10;}
	.st20{fill:none;stroke:#000000;stroke-width:15;stroke-miterlimit:10;}
	.st21{stroke:#000000;stroke-width:10;stroke-linecap:round;stroke-miterlimit:10;}
	.st22{stroke:#244022;stroke-width:10;stroke-linecap:round;stroke-miterlimit:10;}
	.st23{fill:none;stroke:#000000;stroke-width:10;stroke-linecap:round;stroke-miterlimit:10;}
	.st24{fill:none;stroke:#244022;stroke-width:10;stroke-linecap:round;stroke-miterlimit:10;}
	.st25{fill:none;stroke:#000000;stroke-width:20;stroke-miterlimit:10;}
	.st26{fill:none;stroke:#000000;stroke-width:0.25;stroke-miterlimit:10;}
	.st27{fill:#244022;stroke:#000000;stroke-width:10;stroke-linecap:round;stroke-miterlimit:10;}
	.st28{fill:none;stroke:#000000;stroke-width:9;stroke-linecap:round;stroke-miterlimit:10;}
	.st29{fill:none;stroke:#000000;stroke-width:9;stroke-miterlimit:10;}
	.st30{fill:none;stroke:#000000;stroke-width:15;stroke-linecap:round;stroke-miterlimit:10;}
	.st31{fill:none;stroke:#000000;stroke-width:20;stroke-linecap:round;stroke-miterlimit:10;}
	.st32{fill:#41443F;}
	.st33{fill:none;stroke:#000000;stroke-width:13;stroke-linecap:round;stroke-miterlimit:10;}
	.st34{stroke:#000000;stroke-width:15;stroke-linecap:round;stroke-linejoin:round;stroke-miterlimit:10;}
	.st35{stroke:#000000;stroke-width:15;stroke-miterlimit:10;}
	.st36{fill:none;stroke:#000000;stroke-width:25;stroke-miterlimit:10;}
	.st37{fill:none;stroke:#000000;stroke-width:25;stroke-linecap:round;stroke-miterlimit:10;}
	.st38{fill:#F47C20;}
	
		.st39{display:none;opacity:0.35;fill:none;stroke:#000000;stroke-width:20;stroke-linecap:round;stroke-linejoin:round;stroke-miterlimit:10;}
	.st40{display:none;fill:none;stroke:#000000;stroke-width:10;stroke-miterlimit:10;}
	.st41{display:none;fill:none;}
	.st42{fill:#FFFFFF;stroke:#000000;stroke-width:12;stroke-linecap:round;stroke-linejoin:round;stroke-miterlimit:10;}
</style>
<g id="Layer_1">
</g>
<g id="Layer_2">
	<g>
		<path class="st38" d="M169.22,185.85H43.62c-2.76,0-5,2.24-5,5s2.24,5,5,5h125.61c2.76,0,5-2.24,5-5S171.99,185.85,169.22,185.85z
			"/>
		<path class="st38" d="M59.67,151.49l31.45,0.02c0,0,0,0,0,0c1.33,0,2.6-0.53,3.54-1.46l74.23-74.23
			c3.45-3.44,5.34-8.04,5.34-12.94c0-4.9-1.9-9.49-5.34-12.93l-12.67-12.67c-3.44-3.45-8.04-5.34-12.94-5.34
			c-4.9,0-9.49,1.9-12.93,5.34l-74.23,74.23c-0.94,0.94-1.47,2.21-1.46,3.54l0.02,31.45C54.67,149.25,56.91,151.49,59.67,151.49z
			 M149.14,44.35l12.67,12.67c1.56,1.56,2.41,3.64,2.41,5.86c0,2.23-0.86,4.31-2.41,5.86L155.56,75l-24.4-24.4l6.25-6.25
			C140.65,41.12,145.91,41.11,149.14,44.35z M124.09,57.67l24.4,24.4l-59.44,59.44l-24.38-0.02l-0.02-24.38L124.09,57.67z"/>
	</g>
</g>
</svg>
