<?xml version="1.0" encoding="utf-8"?>
<!-- Generator: Adobe Illustrator 25.0.1, SVG Export Plug-In . SVG Version: 6.00 Build 0)  -->
<svg version="1.1" xmlns="http://www.w3.org/2000/svg" xmlns:xlink="http://www.w3.org/1999/xlink" x="0px" y="0px"
	 viewBox="0 0 48.65 48.65" style="enable-background:new 0 0 48.65 48.65;" xml:space="preserve">
<style type="text/css">
	.st0{fill:#5CA658;}
	.st1{fill:none;stroke:#244022;stroke-width:10;stroke-linecap:round;stroke-linejoin:round;stroke-miterlimit:10;}
	.st2{fill:none;stroke:#000000;stroke-width:20;stroke-linecap:round;stroke-linejoin:round;stroke-miterlimit:10;}
	.st3{fill:none;stroke:#000000;stroke-width:25;stroke-linecap:round;stroke-linejoin:round;stroke-miterlimit:10;}
	.st4{fill:none;stroke:#000000;stroke-miterlimit:10;}
	.st5{fill:none;stroke:#000000;stroke-width:12;stroke-linecap:round;stroke-miterlimit:10;}
	.st6{fill:none;stroke:#478146;stroke-width:12;stroke-linecap:round;stroke-miterlimit:10;}
	.st7{fill:#264328;}
	.st8{fill:#41443F;stroke:#000000;stroke-width:12;stroke-linecap:round;stroke-miterlimit:10;}
	.st9{fill:#5CA659;}
	.st10{fill:#41443F;stroke:#244022;stroke-width:12;stroke-linecap:round;stroke-miterlimit:10;}
	.st11{fill:none;stroke:#244022;stroke-width:12;stroke-linecap:round;stroke-miterlimit:10;}
	.st12{fill:#244022;}
	.st13{fill:#41443F;stroke:#5CA659;stroke-width:12;stroke-linecap:round;stroke-miterlimit:10;}
	.st14{fill:none;stroke:#5CA659;stroke-width:12;stroke-linecap:round;stroke-miterlimit:10;}
	.st15{fill:none;stroke:#000000;stroke-width:10;stroke-linecap:round;stroke-linejoin:round;stroke-miterlimit:10;}
	.st16{fill:none;stroke:#000000;stroke-width:10;stroke-miterlimit:10;}
	.st17{fill:none;stroke:#000000;stroke-width:11;stroke-miterlimit:10;}
	.st18{fill:none;stroke:#000000;stroke-width:5;stroke-miterlimit:10;}
	.st19{stroke:#000000;stroke-width:5;stroke-miterlimit:10;}
	.st20{fill:none;stroke:#000000;stroke-width:15;stroke-miterlimit:10;}
	.st21{stroke:#000000;stroke-width:10;stroke-linecap:round;stroke-miterlimit:10;}
	.st22{stroke:#244022;stroke-width:10;stroke-linecap:round;stroke-miterlimit:10;}
	.st23{fill:none;stroke:#000000;stroke-width:10;stroke-linecap:round;stroke-miterlimit:10;}
	.st24{fill:none;stroke:#244022;stroke-width:10;stroke-linecap:round;stroke-miterlimit:10;}
	.st25{fill:none;stroke:#000000;stroke-width:20;stroke-miterlimit:10;}
	.st26{fill:none;stroke:#000000;stroke-width:0.25;stroke-miterlimit:10;}
	.st27{fill:#F47C20;}
	.st28{fill:#244022;stroke:#000000;stroke-width:10;stroke-linecap:round;stroke-miterlimit:10;}
	.st29{fill:none;stroke:#000000;stroke-width:9;stroke-linecap:round;stroke-miterlimit:10;}
	.st30{fill:none;stroke:#000000;stroke-width:9;stroke-miterlimit:10;}
	.st31{fill:none;stroke:#000000;stroke-width:15;stroke-linecap:round;stroke-miterlimit:10;}
	.st32{fill:none;stroke:#000000;stroke-width:20;stroke-linecap:round;stroke-miterlimit:10;}
	.st33{fill:#41443F;}
	.st34{fill:none;stroke:#000000;stroke-width:13;stroke-linecap:round;stroke-miterlimit:10;}
	.st35{stroke:#000000;stroke-width:15;stroke-linecap:round;stroke-linejoin:round;stroke-miterlimit:10;}
	.st36{stroke:#000000;stroke-width:15;stroke-miterlimit:10;}
	.st37{fill:none;stroke:#000000;stroke-width:25;stroke-miterlimit:10;}
	.st38{fill:none;stroke:#000000;stroke-width:25;stroke-linecap:round;stroke-miterlimit:10;}
	
		.st39{display:none;opacity:0.35;fill:none;stroke:#000000;stroke-width:20;stroke-linecap:round;stroke-linejoin:round;stroke-miterlimit:10;}
	.st40{display:none;fill:none;stroke:#000000;stroke-width:10;stroke-miterlimit:10;}
	.st41{display:none;fill:none;}
	.st42{fill:#FFFFFF;stroke:#000000;stroke-width:12;stroke-linecap:round;stroke-linejoin:round;stroke-miterlimit:10;}
	.st43{fill:#56B4E5;}
	.st44{fill:#FFFFFF;}
	.st45{fill:#4EB965;}
</style>
<g id="Layer_1">
</g>
<g id="Layer_2">
	<path class="st27" d="M47.77,42.09c-0.27,0.53-0.62,1.03-1.03,1.49l-2.43,2.68c-1.33,1.46-3.14,2.23-4.98,2.28
		c-0.08,0-0.16,0-0.23,0h-0.07c-21.38,0-38.74-17.25-38.9-38.6c0-0.08,0-0.15,0-0.23c0.01-1.66,0.61-3.32,1.8-4.63l2.43-2.68
		c0.64-0.71,1.4-1.25,2.22-1.63c0,0,0,0,0,0c2.47-1.14,5.5-0.78,7.63,1.15l2.68,2.43c2.84,2.58,3.05,7.01,0.48,9.85l-2.43,2.68
		C13.89,18,12.57,18.71,11.18,19c-0.64,0.13-1,0.83-0.71,1.42c3.8,7.72,10.08,13.99,17.81,17.78c0.57,0.28,1.27-0.05,1.41-0.67
		c0.26-1.11,0.8-2.18,1.62-3.08l2.43-2.68c2.58-2.84,7.01-3.05,9.85-0.47l2.68,2.43C48.64,35.89,49.17,39.35,47.77,42.09z"/>
</g>
</svg>
